HIERARCHY
ROOT Hips
{
	OFFSET 0.000000 83.214638 0.000000
	CHANNELS 6 Xposition Yposition Zposition Xrotation Yrotation Zrotation
	JOINT Pelvis
	{
		OFFSET 0.000000 0.000000 0.000000
		CHANNELS 3 Xrotation Yrotation Zrotation
		JOINT LeftUpLeg
		{
			OFFSET 8.479700 -4.795502 -0.379100
			CHANNELS 3 Xrotation Yrotation Zrotation
			JOINT LeftLeg
			{
				OFFSET 0.024144 -32.555107 0.112900
				CHANNELS 3 Xrotation Yrotation Zrotation
				JOINT LeftFoot
				{
					OFFSET -0.024144 -32.638630 -3.012600
					CHANNELS 3 Xrotation Yrotation Zrotation
					JOINT LeftToeBase
					{
						OFFSET 0.970200 -13.225400 11.864200
						CHANNELS 3 Xrotation Yrotation Zrotation
						End Site
						{
							OFFSET 0.000000 12.319262 0.000000
						}
					}
					JOINT LFootTongue
					{
						OFFSET 1.142400 -1.059800 6.665200
						CHANNELS 3 Xrotation Yrotation Zrotation
						End Site
						{
							OFFSET 0.000000 12.319262 0.000000
						}
					}
				}
				JOINT LeftPantLeg
				{
					OFFSET 0.918482 -16.533964 -2.284700
					CHANNELS 3 Xrotation Yrotation Zrotation
					End Site
					{
						OFFSET 0.350399 24.744368 0.000000
					}
				}
			}
		}
		JOINT RightUpLeg
		{
			OFFSET -8.479700 -4.795502 -0.379100
			CHANNELS 3 Xrotation Yrotation Zrotation
			JOINT RightLeg
			{
				OFFSET -0.023144 -32.555092 0.112900
				CHANNELS 3 Xrotation Yrotation Zrotation
				JOINT RightFoot
				{
					OFFSET 0.023144 -32.638641 -3.012700
					CHANNELS 3 Xrotation Yrotation Zrotation
					JOINT RightToeBase
					{
						OFFSET -0.970200 -13.225400 11.864200
						CHANNELS 3 Xrotation Yrotation Zrotation
						End Site
						{
							OFFSET 0.000000 12.319244 0.000000
						}
					}
					JOINT RFootTongue
					{
						OFFSET -1.142200 -1.059800 6.665200
						CHANNELS 3 Xrotation Yrotation Zrotation
						End Site
						{
							OFFSET 0.000000 12.319243 0.000000
						}
					}
				}
				JOINT RightPantLeg
				{
					OFFSET -0.919482 -16.533978 -2.284800
					CHANNELS 3 Xrotation Yrotation Zrotation
					End Site
					{
						OFFSET -0.350400 24.744419 0.000000
					}
				}
			}
		}
	}
	JOINT Spine
	{
		OFFSET 0.000000 7.722000 1.166200
		CHANNELS 3 Xrotation Yrotation Zrotation
		JOINT Spine1
		{
			OFFSET 0.000000 12.024101 0.248800
			CHANNELS 3 Xrotation Yrotation Zrotation
			JOINT Spine2
			{
				OFFSET 0.000000 11.502998 -0.491200
				CHANNELS 3 Xrotation Yrotation Zrotation
				JOINT Neck
				{
					OFFSET 0.000000 18.430702 -3.123100
					CHANNELS 3 Xrotation Yrotation Zrotation
					JOINT Head
					{
						OFFSET 0.000000 9.051102 1.034000
						CHANNELS 3 Xrotation Yrotation Zrotation
						JOINT HairB
						{
							OFFSET 0.208400 24.786102 24.822300
							CHANNELS 3 Xrotation Yrotation Zrotation
							End Site
							{
								OFFSET 0.000000 32.263779 0.000000
							}
						}
						JOINT HairA
						{
							OFFSET -7.081100 24.428299 23.196600
							CHANNELS 3 Xrotation Yrotation Zrotation
							End Site
							{
								OFFSET 0.000000 32.263779 0.000000
							}
						}
						JOINT Hat
						{
							OFFSET 16.728800 15.048294 -15.439601
							CHANNELS 3 Xrotation Yrotation Zrotation
							End Site
							{
								OFFSET 0.000000 32.263779 0.000000
							}
						}
					}
				}
				JOINT LeftShoulder
				{
					OFFSET 6.197800 13.665199 -4.064700
					CHANNELS 3 Xrotation Yrotation Zrotation
					JOINT LeftArm
					{
						OFFSET 7.778100 -0.187103 -1.709300
						CHANNELS 3 Xrotation Yrotation Zrotation
						JOINT LeftForeArm
						{
							OFFSET 22.049376 0.000000 0.000000
							CHANNELS 3 Xrotation Yrotation Zrotation
							JOINT LeftHand
							{
								OFFSET 23.009392 0.000000 0.000000
								CHANNELS 3 Xrotation Yrotation Zrotation
								JOINT LeftHandThumb1
								{
									OFFSET 3.507191 -2.063065 3.133727
									CHANNELS 3 Xrotation Yrotation Zrotation
									JOINT LeftHandThumb2
									{
										OFFSET 3.101337 -1.790558 1.790558
										CHANNELS 3 Xrotation Yrotation Zrotation
										JOINT LeftHandThumb3
										{
											OFFSET 3.058640 -1.765907 1.765906
											CHANNELS 3 Xrotation Yrotation Zrotation
											End Site
											{
												OFFSET -0.415260 3.926476 -0.049563
											}
										}
									}
								}
								JOINT LeftHandIndex1
								{
									OFFSET 11.334419 -0.901459 3.706815
									CHANNELS 3 Xrotation Yrotation Zrotation
									JOINT LeftHandIndex2
									{
										OFFSET 3.283112 0.000000 0.000000
										CHANNELS 3 Xrotation Yrotation Zrotation
										JOINT LeftHandIndex3
										{
											OFFSET 3.323853 0.000000 0.000000
											CHANNELS 3 Xrotation Yrotation Zrotation
											End Site
											{
												OFFSET -1.135597 3.097809 0.402452
											}
										}
									}
								}
								JOINT LeftHandMiddle1
								{
									OFFSET 11.335861 0.000000 0.000000
									CHANNELS 3 Xrotation Yrotation Zrotation
									JOINT LeftHandMiddle2
									{
										OFFSET 3.410492 0.000000 0.000000
										CHANNELS 3 Xrotation Yrotation Zrotation
										JOINT LeftHandMiddle3
										{
											OFFSET 3.312172 0.000000 0.000000
											CHANNELS 3 Xrotation Yrotation Zrotation
											End Site
											{
												OFFSET -1.150200 3.080154 0.400270
											}
										}
									}
								}
								JOINT LeftHandRing1
								{
									OFFSET 11.514786 -0.013176 -3.003090
									CHANNELS 3 Xrotation Yrotation Zrotation
									JOINT LeftHandRing2
									{
										OFFSET 3.053307 0.000000 0.000000
										CHANNELS 3 Xrotation Yrotation Zrotation
										JOINT LeftHandRing3
										{
											OFFSET 3.295807 0.000000 0.000000
											CHANNELS 3 Xrotation Yrotation Zrotation
											End Site
											{
												OFFSET -1.281006 3.013344 0.375733
											}
										}
									}
								}
								JOINT LeftHandPinky1
								{
									OFFSET 10.518692 -0.960396 -5.730441
									CHANNELS 3 Xrotation Yrotation Zrotation
									JOINT LeftHandPinky2
									{
										OFFSET 2.861649 0.000000 0.000000
										CHANNELS 3 Xrotation Yrotation Zrotation
										JOINT LeftHandPinky3
										{
											OFFSET 2.863380 0.000000 0.000000
											CHANNELS 3 Xrotation Yrotation Zrotation
											End Site
											{
												OFFSET -0.843597 2.711159 0.369971
											}
										}
									}
								}
							}
							JOINT LSleeve
							{
								OFFSET 6.676277 -0.344902 -1.011730
								CHANNELS 3 Xrotation Yrotation Zrotation
								End Site
								{
									OFFSET 0.000000 14.885353 0.000000
								}
							}
						}
					}
				}
				JOINT RightShoulder
				{
					OFFSET -6.197800 13.665199 -4.064700
					CHANNELS 3 Xrotation Yrotation Zrotation
					JOINT RightArm
					{
						OFFSET -7.778100 -0.187103 -1.709300
						CHANNELS 3 Xrotation Yrotation Zrotation
						JOINT RightForeArm
						{
							OFFSET -22.049376 0.000000 0.000000
							CHANNELS 3 Xrotation Yrotation Zrotation
							JOINT RightHand
							{
								OFFSET -23.009392 0.000000 0.000000
								CHANNELS 3 Xrotation Yrotation Zrotation
								JOINT RightHandThumb1
								{
									OFFSET -3.507191 -2.063065 3.133727
									CHANNELS 3 Xrotation Yrotation Zrotation
									JOINT RightHandThumb2
									{
										OFFSET -3.101337 -1.790558 1.790558
										CHANNELS 3 Xrotation Yrotation Zrotation
										JOINT RightHandThumb3
										{
											OFFSET -3.058640 -1.765907 1.765906
											CHANNELS 3 Xrotation Yrotation Zrotation
											End Site
											{
												OFFSET 0.415260 3.926476 -0.049563
											}
										}
									}
								}
								JOINT RightHandIndex1
								{
									OFFSET -11.334419 -0.901459 3.706815
									CHANNELS 3 Xrotation Yrotation Zrotation
									JOINT RightHandIndex2
									{
										OFFSET -3.283112 0.000000 0.000000
										CHANNELS 3 Xrotation Yrotation Zrotation
										JOINT RightHandIndex3
										{
											OFFSET -3.323853 0.000000 0.000000
											CHANNELS 3 Xrotation Yrotation Zrotation
											End Site
											{
												OFFSET 1.135597 3.097809 0.402452
											}
										}
									}
								}
								JOINT RightHandMiddle1
								{
									OFFSET -11.335861 0.000000 0.000000
									CHANNELS 3 Xrotation Yrotation Zrotation
									JOINT RightHandMiddle2
									{
										OFFSET -3.410492 0.000000 0.000000
										CHANNELS 3 Xrotation Yrotation Zrotation
										JOINT RightHandMiddle3
										{
											OFFSET -3.312172 0.000000 0.000000
											CHANNELS 3 Xrotation Yrotation Zrotation
											End Site
											{
												OFFSET 1.150200 3.080154 0.400270
											}
										}
									}
								}
								JOINT RightHandRing1
								{
									OFFSET -11.514786 -0.013176 -3.003090
									CHANNELS 3 Xrotation Yrotation Zrotation
									JOINT RightHandRing2
									{
										OFFSET -3.053307 0.000000 0.000000
										CHANNELS 3 Xrotation Yrotation Zrotation
										JOINT RightHandRing3
										{
											OFFSET -3.295807 0.000000 0.000000
											CHANNELS 3 Xrotation Yrotation Zrotation
											End Site
											{
												OFFSET 1.281006 3.013344 0.375733
											}
										}
									}
								}
								JOINT RightHandPinky1
								{
									OFFSET -10.518692 -0.960396 -5.730441
									CHANNELS 3 Xrotation Yrotation Zrotation
									JOINT RightHandPinky2
									{
										OFFSET -2.861649 0.000000 0.000000
										CHANNELS 3 Xrotation Yrotation Zrotation
										JOINT RightHandPinky3
										{
											OFFSET -2.863380 0.000000 0.000000
											CHANNELS 3 Xrotation Yrotation Zrotation
											End Site
											{
												OFFSET 0.843597 2.711159 0.369971
											}
										}
									}
								}
							}
							JOINT RSleeve
							{
								OFFSET -6.676277 -0.344902 -1.011730
								CHANNELS 3 Xrotation Yrotation Zrotation
								End Site
								{
									OFFSET 0.000000 14.885353 0.000000
								}
							}
						}
					}
				}
				JOINT Backpack
				{
					OFFSET 0.000000 -2.471497 36.677502
					CHANNELS 3 Xrotation Yrotation Zrotation
					End Site
					{
						OFFSET 0.000000 20.427315 0.000000
					}
				}
				JOINT Hood
				{
					OFFSET 0.000000 18.754097 -10.431000
					CHANNELS 3 Xrotation Yrotation Zrotation
					JOINT Hood1
					{
						OFFSET 0.000000 -5.011002 -7.685901
						CHANNELS 3 Xrotation Yrotation Zrotation
						End Site
						{
							OFFSET 0.000000 9.175140 0.000000
						}
					}
				}
				JOINT LHoodieString
				{
					OFFSET 5.250500 16.397697 3.089900
					CHANNELS 3 Xrotation Yrotation Zrotation
					JOINT LHoodieString1
					{
						OFFSET 0.257700 -6.364304 3.694600
						CHANNELS 3 Xrotation Yrotation Zrotation
						JOINT LHoodieString2
						{
							OFFSET 0.000000 -9.643799 2.679100
							CHANNELS 3 Xrotation Yrotation Zrotation
							End Site
							{
								OFFSET 0.000000 10.009018 0.000000
							}
						}
					}
				}
				JOINT RHoodieString
				{
					OFFSET -5.250500 16.397697 3.089900
					CHANNELS 3 Xrotation Yrotation Zrotation
					JOINT RHoodieString1
					{
						OFFSET -0.257700 -6.364304 3.694600
						CHANNELS 3 Xrotation Yrotation Zrotation
						JOINT RHoodieString2
						{
							OFFSET 0.000000 -9.643799 2.679100
							CHANNELS 3 Xrotation Yrotation Zrotation
							End Site
							{
								OFFSET 0.000000 10.009018 0.000000
							}
						}
					}
				}
			}
			JOINT LBackpack_Strap
			{
				OFFSET 15.223200 -7.719803 -6.610900
				CHANNELS 3 Xrotation Yrotation Zrotation
				End Site
				{
					OFFSET 0.000000 16.040596 0.000000
				}
			}
			JOINT RBackpack_Strap
			{
				OFFSET -15.223000 -7.719803 -6.610900
				CHANNELS 3 Xrotation Yrotation Zrotation
				End Site
				{
					OFFSET 0.000000 16.040596 0.000000
				}
			}
		}
	}
	JOINT BoyFacialAnim_Joint
	{
		OFFSET 1.000000 -82.208099 -1.550900
		CHANNELS 3 Xrotation Yrotation Zrotation
		End Site
		{
			OFFSET 0.000000 30.012791 0.000000
		}
	}
}
MOTION
Frames: 4
Frame Time: 0.033333
0.834053 82.216492 0.486852 -4.332348 21.673483 -0.271081 0.000000 0.000001 0.000000 -3.420960 8.490208 -0.842508 21.127951 10.114753 -2.103808 -12.558929 7.757486 7.409301 -0.000000 0.000002 0.000000 -0.000000 0.000002 0.000000 0.000001 0.000003 -0.000000 -7.248673 -11.119404 0.765576 14.695755 -8.285028 -2.585794 -3.387634 -0.088393 0.054430 0.000000 -0.000000 0.000000 0.000000 -0.000000 0.000000 -0.000000 -0.000000 -0.000000 -0.275027 -1.073295 0.908162 -3.295910 -0.154321 0.178682 -3.295704 -0.149857 0.185311 -2.355417 0.353693 -2.338626 8.949759 -2.051511 0.979582 -0.000001 0.000003 0.000000 -0.000001 0.000003 0.000000 -0.000001 0.000003 0.000000 -3.683554 11.319024 27.679497 -50.111886 -26.232617 -18.150178 0.000010 -40.780584 0.000002 3.595557 6.589013 4.005505 -1.681372 11.015585 7.244360 4.543299 15.300737 1.297915 -0.000001 0.000002 -0.000003 0.028258 0.624422 -5.181472 0.056817 0.884525 -7.350208 0.000001 -0.000001 0.000001 0.064017 0.938657 -7.802798 0.127211 1.320024 -11.007704 0.000001 0.000001 -0.000001 0.159496 1.476338 -12.331179 0.277241 1.937857 -16.282135 -0.000001 -0.000003 -0.000003 1.752956 6.144879 -19.214710 0.488386 -1.517776 -22.048993 -0.000003 -0.000001 -0.000002 -0.000002 0.000002 0.000004 -1.734518 -6.896246 -19.966656 -26.034550 11.755089 0.273988 0.000001 45.040737 0.000001 -10.313744 -5.937580 -8.467649 -2.125590 -14.557385 -8.330919 5.614188 -19.660532 -0.960119 -0.000003 0.000004 -0.000002 0.093661 -1.139764 9.395781 0.154765 -1.461725 12.086504 -0.000000 0.000001 -0.000001 0.114916 -1.261419 10.409628 0.207431 -1.689023 14.002602 0.000001 0.000000 0.000003 0.203862 -1.674605 13.880509 0.320958 -2.092090 17.442821 -0.000000 0.000001 0.000001 0.442259 -2.444588 20.506682 0.464133 -2.502211 21.012968 -0.000001 0.000000 0.000002 0.000002 0.000001 0.000000 -0.000001 0.000001 0.000000 -0.000001 0.000001 0.000000 -0.000001 0.000001 0.000000 -0.000001 0.000001 0.000000 -0.000001 0.000001 0.000000 -0.000001 0.000001 0.000000 -0.000001 0.000001 0.000000 -0.000001 0.000001 0.000000 -0.000001 0.000001 0.000000 -0.000001 0.000002 0.000000 -0.000001 0.000002 0.000000 0.000000 0.000001 0.000000 
0.940775 82.154839 0.464918 -3.694765 22.327813 -0.144926 0.000000 0.000000 0.000000 -5.058885 8.635796 -0.794858 22.632126 10.085956 -2.559651 -11.994772 8.585046 6.774834 0.000000 -0.000002 0.000000 0.000000 -0.000002 0.000000 -0.000000 0.000002 -0.000001 -7.959614 -11.359131 -0.123786 14.955046 -8.784710 -2.296847 -3.541603 -0.110511 1.236506 0.000000 -0.000000 -0.000000 0.000000 -0.000000 -0.000000 0.000000 0.000000 -0.000000 -0.328491 -1.225202 0.573917 -3.510462 -0.182253 0.322389 -3.509992 -0.179154 0.328628 -2.418908 0.338832 -2.601728 8.841005 -2.460341 1.197727 0.000000 -0.000001 0.000000 0.000000 -0.000001 0.000000 0.000000 -0.000001 0.000000 -3.417701 11.046847 26.638793 -50.669048 -26.875799 -17.763447 0.000006 -40.860131 0.000018 2.466742 7.151935 3.929812 -1.681366 11.015587 7.244361 4.543295 15.300734 1.297912 -0.000002 0.000001 -0.000001 0.022108 0.552454 -4.582774 0.052744 0.852410 -7.082002 0.000004 -0.000000 0.000002 0.055292 0.872627 -7.250718 0.116247 1.262412 -10.521488 0.000005 0.000000 0.000000 0.143573 1.401538 -11.696921 0.253805 1.855782 -15.574235 0.000001 -0.000002 -0.000002 1.660588 6.066679 -18.346247 0.447212 -1.621776 -21.123501 -0.000000 0.000001 0.000002 -0.000002 -0.000001 0.000001 -1.851424 -7.393768 -20.640077 -25.366341 11.517264 1.207564 0.000006 45.098083 -0.000004 -10.438055 -6.401521 -8.619748 -2.125588 -14.557380 -8.330929 5.614188 -19.660541 -0.960115 -0.000001 0.000004 -0.000002 0.091218 -1.124886 9.272016 0.146930 -1.424690 11.775553 -0.000004 -0.000001 -0.000000 0.111677 -1.243711 10.261827 0.205190 -1.679965 13.925841 0.000003 0.000001 0.000002 0.197865 -1.650138 13.673612 0.327077 -2.111453 17.609624 -0.000000 -0.000000 0.000004 0.429019 -2.408887 20.193593 0.486378 -2.559349 21.517116 0.000001 0.000001 0.000002 0.000001 0.000000 0.000001 0.000000 0.000000 0.000000 0.000000 0.000000 0.000000 0.000000 0.000000 0.000000 0.000000 0.000000 0.000000 0.000000 0.000000 -0.000000 0.000000 -0.000001 -0.000000 0.000000 0.000000 0.000000 0.000000 0.000000 -0.000000 0.000000 -0.000001 -0.000000 -0.000000 -0.000001 0.000000 -0.000000 -0.000001 0.000000 0.000000 0.000000 0.000000 
1.096768 82.050140 0.435949 -3.115506 23.486384 -0.130344 -0.000000 0.000000 0.000000 -6.574777 8.598139 -1.068071 23.876786 10.092810 -2.902729 -12.158050 10.492974 7.487746 -0.000000 -0.000001 0.000000 -0.000000 -0.000001 -0.000000 -0.000000 -0.000004 0.000001 -8.545829 -11.580062 -0.922920 15.397372 -9.227647 -1.970355 -3.872657 -0.788108 2.481554 -0.000000 0.000000 -0.000000 -0.000000 0.000000 -0.000000 0.000000 0.000000 0.000000 -0.266437 -1.494859 0.623508 -3.662897 -0.226681 0.462274 -3.661903 -0.224830 0.468002 -2.544749 0.264105 -2.981709 8.841022 -3.319517 1.341147 -0.000000 -0.000001 0.000000 -0.000000 -0.000001 0.000000 -0.000000 -0.000001 0.000000 -3.056948 10.791057 25.196153 -52.462027 -27.730583 -18.786097 -0.000002 -40.558514 0.000004 0.787395 7.840115 4.513962 -1.681364 11.015590 7.244362 4.543291 15.300735 1.297908 -0.000001 -0.000001 -0.000002 0.018927 0.511165 -4.239556 0.048353 0.816192 -6.779658 -0.000001 0.000003 -0.000001 0.050062 0.830444 -6.898347 0.107341 1.213516 -10.109579 -0.000001 -0.000003 -0.000002 0.132899 1.348996 -11.252568 0.236165 1.791321 -15.019688 0.000002 0.000000 -0.000000 1.593021 6.007938 -17.703803 0.417147 -1.701031 -20.421871 -0.000002 -0.000002 0.000003 -0.000001 0.000000 0.000004 -1.971191 -7.779640 -21.309429 -24.585514 11.597947 2.635071 0.000004 43.855490 -0.000008 -10.921278 -6.047846 -8.966533 -2.125591 -14.557377 -8.330927 5.614191 -19.660539 -0.960116 0.000002 0.000004 0.000001 0.091377 -1.125807 9.279668 0.141929 -1.400527 11.572845 -0.000002 0.000000 0.000002 0.108714 -1.227196 10.124020 0.202504 -1.669139 13.834182 -0.000000 0.000000 0.000003 0.188808 -1.612498 13.355654 0.327024 -2.111249 17.607881 -0.000002 -0.000002 0.000004 0.405403 -2.343779 19.624418 0.495053 -2.581188 21.710364 -0.000000 -0.000000 -0.000002 -0.000000 0.000000 0.000001 -0.000001 -0.000001 -0.000000 -0.000001 -0.000001 -0.000000 -0.000001 -0.000001 -0.000000 -0.000001 -0.000001 -0.000000 -0.000001 -0.000001 -0.000000 0.000000 -0.000001 -0.000000 -0.000001 -0.000001 -0.000000 -0.000001 -0.000001 -0.000000 0.000000 -0.000001 -0.000000 0.000000 0.000002 0.000000 0.000000 0.000002 0.000000 -0.000000 0.000000 0.000000 
1.339345 81.912819 0.422686 -2.688613 25.106353 -0.372481 0.000000 -0.000001 -0.000000 -7.651550 8.388926 -1.598043 24.599169 10.166968 -3.033681 -13.286407 12.984489 9.732753 -0.000000 0.000001 -0.000000 -0.000000 0.000001 -0.000001 -0.000002 -0.000000 0.000001 -9.091877 -11.635500 -1.273333 16.464775 -9.484189 -1.667336 -4.617913 -2.422288 2.880298 0.000000 0.000000 0.000000 0.000000 0.000000 0.000000 0.000000 0.000000 0.000000 -0.095011 -1.808947 1.108525 -3.728139 -0.275983 0.566878 -3.726562 -0.275131 0.572055 -2.651686 0.107735 -3.432605 8.992897 -4.674177 1.317623 -0.000000 0.000000 0.000000 -0.000000 0.000000 0.000000 -0.000000 0.000000 0.000000 -2.574523 10.417970 23.261562 -55.359810 -28.578529 -21.277096 -0.000001 -40.085161 0.000017 -1.540216 8.722362 5.895244 -1.681368 11.015587 7.244361 4.543294 15.300734 1.297913 0.000001 0.000001 -0.000001 0.018176 0.501167 -4.156651 0.044377 0.782068 -6.494718 0.000003 -0.000001 0.000001 0.047402 0.808261 -6.713361 0.100847 1.176564 -9.798459 0.000001 -0.000000 0.000002 0.125194 1.309690 -10.920441 0.223977 1.745268 -14.624699 -0.000002 -0.000002 -0.000003 1.534864 5.956287 -17.145855 0.397805 -1.753607 -19.958180 -0.000003 0.000001 0.000005 -0.000001 -0.000000 0.000004 -2.013672 -7.870176 -21.666297 -23.808250 11.847688 4.363617 0.000006 41.714274 -0.000009 -11.777345 -5.161493 -9.152010 -2.125588 -14.557382 -8.330930 5.614188 -19.660536 -0.960118 -0.000006 0.000006 -0.000001 0.091429 -1.126160 9.282671 0.140075 -1.391430 11.496743 -0.000001 -0.000001 0.000003 0.105490 -1.209044 9.972698 0.199608 -1.657327 13.734208 -0.000000 -0.000001 -0.000004 0.179257 -1.571748 13.012001 0.321580 -2.094039 17.459601 -0.000000 0.000001 0.000002 0.380729 -2.273414 19.011633 0.489867 -2.568179 21.595134 -0.000001 -0.000001 -0.000000 -0.000000 -0.000001 -0.000001 -0.000000 -0.000001 -0.000000 -0.000000 -0.000001 -0.000000 -0.000000 -0.000001 -0.000000 -0.000000 -0.000001 -0.000000 -0.000000 -0.000001 -0.000000 0.000001 -0.000001 -0.000000 -0.000000 -0.000001 -0.000000 -0.000000 -0.000001 -0.000000 0.000001 -0.000001 -0.000000 -0.000000 -0.000000 0.000000 -0.000000 -0.000000 0.000000 0.000000 -0.000001 -0.000000 
